<svg width="132" height="129" viewBox="0 0 132 129" fill="none" xmlns="http://www.w3.org/2000/svg">
<path d="M45.4316 3.56621L35.7003 10.4888C35.4029 10.6977 35.2295 11.0602 35.2678 11.4385C35.9775 18.7675 40.3718 63.7705 44.5821 106.901C44.6178 107.272 44.8501 107.595 45.1899 107.749L58.4309 113.731L58.4336 113.732C70.4398 119.119 81.246 119.03 88.8564 113.481C90.318 112.429 95.9485 108.442 98.5686 106.581C106.229 101.037 109.735 90.7564 108.439 77.6287C108.382 77.0578 107.872 76.6385 107.3 76.6957C106.724 76.7518 106.309 77.267 106.365 77.8353C107.585 90.1929 104.38 99.8009 97.3548 104.888L95.0453 106.526C95.099 106.433 95.1418 106.329 95.1945 106.234C98.7354 99.8564 99.4459 91.8601 98.7441 84.5391C96.0428 57.0946 73.502 26.9662 49.9668 16.3374C49.7718 16.2495 37.6487 10.7847 38.4012 11.124L46.1523 5.6095L58.8322 11.3406C76.2416 19.1777 92.9293 37.6236 101.349 58.3326C101.565 58.8644 102.174 59.1208 102.706 58.9043C103.241 58.6873 103.495 58.0788 103.279 57.547C94.6687 36.3694 77.5587 17.4859 59.6891 9.44198L46.4648 3.46581C46.1277 3.31268 45.734 3.35057 45.4316 3.56621ZM59.2859 111.831L46.5977 106.098L45.6903 96.7805L49.7578 98.6283C50.2819 98.8663 50.8987 98.6349 51.1368 98.1108C51.3749 97.5866 51.1434 96.9698 50.6193 96.7317L45.4573 94.3868L44.299 82.4927L47.2409 83.8291C47.765 84.0672 48.3818 83.8358 48.6199 83.3117C48.858 82.7875 48.6265 82.1707 48.1024 81.9326L44.0658 80.0989L42.923 68.3641L48.5761 70.7777C49.1052 71.0025 49.6626 70.715 49.9439 70.2284C50.1692 69.7006 49.9233 69.0885 49.3951 68.8619L42.6929 66.0003L41.531 54.0693L46.0656 55.9793C46.5965 56.2026 47.1947 55.9359 47.4305 55.4241C47.6538 54.8932 47.4052 54.2821 46.8753 54.0592L41.3015 51.7115L40.1411 39.7964L47.3704 42.9163C47.8923 43.1422 48.498 42.9057 48.7318 42.3908C48.7344 42.3853 48.7369 42.3797 48.7403 42.3723C48.9673 41.8454 48.7242 41.2322 48.1968 41.0038L39.9105 37.4277L38.745 25.46L41.0493 26.3868C41.5834 26.5981 42.1951 26.4269 42.4051 25.8074C42.6192 25.2746 42.3608 24.6679 41.8275 24.4524L38.5172 23.1211L37.5348 13.0325C37.7298 13.1204 49.8602 18.5852 49.1075 18.2461C72.5954 28.8205 94.1173 58.6306 96.6551 84.7184C97.638 94.8442 95.8075 105.89 87.6273 111.79C87.6192 111.795 87.6157 111.805 87.6078 111.81C80.6239 116.884 70.5686 116.894 59.2859 111.831Z" fill="black"/>
<path d="M103.52 64.3302C104.163 66.3563 104.714 68.385 105.156 70.3599C105.281 70.9215 105.839 71.2753 106.399 71.1502C106.963 71.0241 107.314 70.4643 107.188 69.9064C106.733 67.8723 106.167 65.7851 105.506 63.6999C105.332 63.1516 104.746 62.8475 104.197 63.0227C103.648 63.197 103.347 63.7826 103.52 64.3302Z" fill="black"/>
<path d="M83.3455 77.6019C81.7232 60.8819 68.4717 42.0939 53.846 34.3001C53.5079 34.1197 53.0972 34.141 52.7783 34.3536C52.4507 34.5725 52.2841 34.9481 52.32 35.3206C52.3435 35.5601 58.3756 97.1805 58.3412 96.9344C58.3981 97.3417 58.6903 97.6538 59.0022 97.7694C74.2335 103.341 85.0009 94.3225 83.3455 77.6019ZM61.0892 96.2635L67.9973 87.3719C72.5068 88.9021 76.7142 89.186 80.3285 88.2022C77.0405 96.9821 69.6229 98.926 61.0892 96.2635ZM80.945 85.8314C77.4872 87.1351 73.2433 86.9845 68.5968 85.3934L64.6789 45.2013C73.0277 53.6237 80.1384 66.1087 81.272 77.8062C81.5337 80.4382 81.4838 83.1993 80.945 85.8314ZM62.3716 43.0002L66.5476 85.8423L60.1433 94.0857L54.5871 37.1101C57.327 38.7444 60.0226 40.8411 62.3716 43.0002Z" fill="black"/>
</svg>
