<svg xmlns="http://www.w3.org/2000/svg" xmlns:xlink="http://www.w3.org/1999/xlink" version="1.1" x="0px" y="0px" viewBox="0 0 53 66.25" style="enable-background:new 0 0 53 53;" xml:space="preserve"><g><path d="M3.8389468,47.5568466l4.9580083,2.8789063c0.1503525,0.0884972,0.3432198,0.0923462,0.5009766,0.0004883   c3.0624952-1.7654381,21.8601971-12.6218033,39.8759766-23.0258789c0.1552734-0.0893555,0.25-0.2548828,0.25-0.434082   l-0.0146484-6.9750977c0-0.0004883,0-0.0009766,0-0.0014648c-0.0292969-6.3173828-2.2138672-11.0229492-6.1503906-13.2475586   c-0.7500801-0.4299235-3.6105576-2.0993977-4.9443359-2.875c-3.9443359-2.2475586-9.1337891-1.7387695-14.6142578,1.4345703   c-0.2382813,0.1381836-0.3203125,0.4443359-0.1816406,0.6831055c0.1386719,0.2402344,0.4462891,0.3193359,0.6835938,0.1821289   c5.1591797-2.9868164,9.9951172-3.4936523,13.6132813-1.4331055l1.1748047,0.684082   c-0.0516357-0.0048828-0.1055908-0.0029297-0.1574097-0.0071411c-3.4905701-0.2813997-7.1267204,0.9957523-10.1873169,2.7561646   c-11.4592915,6.629961-20.1523705,22.4644375-20.125,34.8618164c0.0002985,0.102684,0.0188513,6.4866142,0.0177002,6.090332   l-3.9493413-2.2929688l-0.0126953-6.6801758c-0.03125-9.1655273,4.7177739-20.1220531,12.0976563-27.9140625   c0.1894531-0.2001953,0.1806641-0.5170898-0.0195313-0.706543c-0.2011719-0.190918-0.5175781-0.1811523-0.7070313,0.019043   C8.4004707,19.5226669,3.5440249,30.7506943,3.5762515,40.1584091l0.0136719,6.9667969   C3.5899234,47.3029404,3.6846499,47.4674911,3.8389468,47.5568466z M48.4092598,20.0046005l0.0136719,6.684082   l-3.8925781,2.2467651v-2.1447144c0-0.2763672-0.2236328-0.5-0.5-0.5s-0.5,0.2236328-0.5,0.5v2.7218628l-4.96875,2.8679199   v-1.5512085c0-0.2763672-0.2236328-0.5-0.5-0.5s-0.5,0.2236328-0.5,0.5v2.128418l-4.9022217,2.8295288l-0.0675049-2.9501343   c-0.0068359-0.2758789-0.2431641-0.4624023-0.5117188-0.4887695c-0.2753906,0.0063477-0.4941406,0.2353516-0.4882813,0.5112305   l0.0800171,3.4976196l-4.9841919,2.8768311l-0.0655518-2.3612671c-0.0078125-0.2763672-0.2431641-0.4848633-0.5136719-0.4863281   c-0.2763672,0.0078125-0.4941406,0.237793-0.4863281,0.5136719l0.0805664,2.9024048l-4.9775391,2.8729858l-0.0717773-3.7792969   c-0.0048828-0.2729492-0.2285156-0.4907227-0.5-0.4907227c-0.0029297,0-0.0058594,0-0.0097656,0   c-0.275404,0.0053711-0.4951172,0.2333984-0.4902344,0.5092773l0.0822144,4.3319092l-4.9995117,2.8856812l-0.0524292-1.1912231   c-0.0136719-0.2753906-0.2099609-0.5087891-0.5224609-0.4775391c-0.2753906,0.012207-0.4892578,0.2456055-0.4775391,0.5214844   l0.0753784,1.7112427l-4.2145386,2.4325562c-0.0003214-0.102684-0.0202818-6.4897881-0.019043-6.0935059   C9.4837055,30.6695251,18.2400284,15.343564,29.138752,9.0544052c4.23069-2.4401689,9.4222717-3.833354,13.625-1.4291992   c0.0041504,0.0023804,0.0088501,0.0020752,0.0130005,0.0043335C46.3810005,9.6747665,48.3819771,14.0677719,48.4092598,20.0046005z   "/><path d="M18.8643379,10.1022568c0.7578125-0.6835938,1.5351563-1.3271484,2.3105469-1.9125977   c0.2207031-0.1660156,0.2646484-0.4799805,0.0986328-0.7001953c-0.1669922-0.2211914-0.4814453-0.2636719-0.7001953-0.0976563   c-0.7988281,0.6025391-1.5986328,1.2646484-2.3789063,1.9672852c-0.2050781,0.1850586-0.2216797,0.5014648-0.0361328,0.706543   C18.3434906,10.2710152,18.6592484,10.286418,18.8643379,10.1022568z"/><path d="M28.6709785,16.284874c-6.9860191,4.0289497-12.5667915,13.5514946-13.0693359,21.4916992   c-0.0117188,0.1835938,0.0791016,0.3588867,0.2353516,0.4560547c0.1607389,0.0997353,0.3579979,0.0979614,0.5136719,0.0083008   c0.1000462-0.0577888,25.8357887-14.9294872,25.7350464-14.8656006c0.1667175-0.1057262,0.2451286-0.2954216,0.2337036-0.4547119   C41.7302475,15.157033,35.6506233,12.2413435,28.6709785,16.284874z M41.2468452,22.3073959l-5.2580566-1.2539063   c-0.2265625-2.2749023-0.9378662-4.1702881-2.0855103-5.5546875   C38.3937149,15.1926365,40.7161789,18.0487862,41.2468452,22.3073959z M32.7445869,15.7000961   c1.2564087,1.2525024,2.0332642,3.1373291,2.260376,5.4841919l-16.7894897,9.6928711   c2.0235863-5.3214836,6.0687447-10.9084625,10.9564819-13.7265625   C30.2703876,16.5136166,31.4871559,15.9872036,32.7445869,15.7000961z M17.7115059,32.3227158l17.8965454-10.3319092   l4.8746948,1.1624756L16.6826973,36.8947372C16.8529873,35.3726158,17.23419,33.7781105,17.7115059,32.3227158z"/></g><text x="0" y="68" fill="#000000" font-size="5px" font-weight="bold" font-family="'Helvetica Neue', Helvetica, Arial-Unicode, Arial, Sans-serif">Created by Brickclay</text><text x="0" y="73" fill="#000000" font-size="5px" font-weight="bold" font-family="'Helvetica Neue', Helvetica, Arial-Unicode, Arial, Sans-serif">from the Noun Project</text></svg>