<svg width="764" height="484" viewBox="0 0 764 484" fill="none" xmlns="http://www.w3.org/2000/svg">
<g clip-path="url(#clip0_8_52)">
<path d="M325.473 477.213C325.473 477.9 326.075 478.451 326.824 478.451H607.551C608.301 478.451 608.902 477.9 608.902 477.213C608.902 476.88 608.766 476.588 608.539 476.37H506.687C504.519 476.37 502.396 476.234 500.307 475.974H326.824C326.075 475.974 325.473 476.526 325.473 477.213Z" fill="#3F3D56"/>
<path d="M189.842 258.075H346.126C372.603 258.075 394.066 277.755 394.066 302.031V416.976C394.066 441.252 372.603 460.931 346.126 460.931H189.842C163.366 460.931 141.902 441.252 141.902 416.976V302.031C141.902 277.755 163.366 258.075 189.842 258.075Z" fill="white"/>
<path d="M140.767 416.976V302.031C140.767 277.22 162.782 257.035 189.842 257.035H346.126C373.186 257.035 395.201 277.22 395.201 302.031V416.976C395.201 441.787 373.186 461.972 346.126 461.972H189.842C162.782 461.972 140.767 441.787 140.767 416.976ZM189.842 259.116C164.034 259.116 143.037 278.368 143.037 302.031V416.976C143.037 440.639 164.034 459.89 189.842 459.89H346.126C371.934 459.89 392.931 440.639 392.931 416.976V302.031C392.931 278.368 371.934 259.116 346.126 259.116H189.842Z" fill="#3F3D56"/>
<path d="M248.273 308.403H283.278L246.939 407.122C246.173 409.202 244.046 410.603 241.651 410.603H214.409C211.331 410.603 208.836 408.316 208.836 405.494C208.836 404.939 208.934 404.387 209.128 403.861L242.984 311.884C243.749 309.803 245.877 308.402 248.272 308.402L248.273 308.403Z" fill="url(#paint0_linear_8_52)"/>
<path d="M299.14 374.617H243.63C242.211 374.616 241.06 375.669 241.058 376.97C241.058 377.625 241.354 378.25 241.876 378.696L277.545 409.221C278.584 410.109 279.951 410.603 281.371 410.603H312.803L299.14 374.617Z" fill="#0078D4"/>
<path d="M248.273 308.403C245.849 308.395 243.701 309.833 242.972 311.952L209.17 403.777C208.132 406.43 209.636 409.352 212.529 410.303C213.137 410.503 213.778 410.605 214.424 410.603H242.369C244.488 410.256 246.24 408.89 246.954 407.028L253.694 388.814L277.772 409.405C278.781 410.17 280.047 410.593 281.356 410.603H312.671L298.937 374.617L258.9 374.626L283.404 308.403L248.273 308.403Z" fill="url(#paint1_linear_8_52)"/>
<path d="M292.983 311.879C292.218 309.802 290.093 308.403 287.702 308.403H248.689C251.081 308.403 253.205 309.802 253.97 311.879L287.827 403.859C288.812 406.533 287.245 409.433 284.329 410.336C283.754 410.514 283.152 410.604 282.546 410.604H321.56C324.639 410.603 327.133 408.315 327.133 405.492C327.132 404.937 327.034 404.385 326.84 403.859L292.983 311.879Z" fill="url(#paint2_linear_8_52)"/>
<path d="M49.0754 2.02386H205.359C231.836 2.02386 253.299 21.7034 253.299 45.9793V160.925C253.299 185.2 231.836 204.88 205.359 204.88H49.0754C22.5988 204.88 1.13528 185.2 1.13528 160.924V45.9794C1.13528 21.7034 22.5988 2.02386 49.0754 2.02386Z" fill="white"/>
<path d="M0 160.925V45.9796C0 21.1688 22.0153 0.983276 49.0753 0.983276H205.359C232.419 0.983276 254.435 21.1688 254.435 45.9796V160.925C254.435 185.735 232.419 205.92 205.359 205.92H49.0753C22.0153 205.92 0 185.735 0 160.925ZM49.0753 3.06501C23.2669 3.06501 2.27043 22.3164 2.27043 45.9797V160.925C2.27043 184.588 23.2669 203.839 49.0753 203.839H205.359C231.168 203.839 252.164 184.588 252.164 160.925V45.9797C252.164 22.3164 231.168 3.06503 205.359 3.06503L49.0753 3.06501Z" fill="#3F3D56"/>
<path d="M96.004 105.211C96.004 106.825 96.1943 108.133 96.5273 109.093C96.908 110.053 97.3838 111.1 98.0499 112.234C98.2878 112.583 98.3829 112.932 98.3829 113.237C98.3829 113.674 98.0974 114.11 97.4789 114.546L94.4814 116.378C94.0532 116.64 93.625 116.771 93.2444 116.771C92.7686 116.771 92.2928 116.553 91.817 116.16C91.1509 115.506 90.58 114.808 90.1042 114.11C89.6284 113.368 89.1526 112.539 88.6293 111.536C84.9181 115.55 80.2554 117.556 74.6411 117.556C70.6445 117.556 67.4567 116.509 65.1253 114.415C62.794 112.321 61.6045 109.529 61.6045 106.039C61.6045 102.331 63.0319 99.3213 65.9342 97.0528C68.8365 94.7844 72.6904 93.6501 77.591 93.6501C79.2086 93.6501 80.8739 93.781 82.6343 93.9992C84.3947 94.2173 86.2027 94.5663 88.1059 94.9589V91.7744C88.1059 88.4589 87.3446 86.1468 85.8697 84.7945C84.3472 83.4421 81.7779 82.7878 78.1143 82.7878C76.4491 82.7878 74.7362 82.9623 72.9758 83.3549C71.2154 83.7475 69.5026 84.2274 67.8373 84.8381C67.076 85.1434 66.5051 85.318 66.172 85.4052C65.839 85.4925 65.6011 85.5361 65.4108 85.5361C64.7447 85.5361 64.4116 85.0998 64.4116 84.1837V82.0461C64.4116 81.3481 64.5068 80.8246 64.7447 80.5193C64.9826 80.2139 65.4108 79.9085 66.0769 79.6031C67.7421 78.8179 69.7404 78.1635 72.0718 77.6401C74.4032 77.0729 76.8773 76.8112 79.4941 76.8112C85.156 76.8112 89.2953 77.989 91.9597 80.3447C94.5766 82.7005 95.9088 86.2776 95.9088 91.0763V105.211L96.004 105.211ZM76.687 111.841C78.2571 111.841 79.8748 111.58 81.5876 111.056C83.3004 110.533 84.8229 109.573 86.1076 108.264C86.8688 107.435 87.4398 106.519 87.7253 105.472C88.0107 104.425 88.2011 103.16 88.2011 101.677V99.8448C86.8213 99.5395 85.3463 99.2777 83.8238 99.1032C82.3013 98.9287 80.8263 98.8415 79.3514 98.8415C76.1636 98.8415 73.8322 99.4086 72.2621 100.586C70.692 101.764 69.9308 103.422 69.9308 105.603C69.9308 107.654 70.5017 109.18 71.6912 110.227C72.8331 111.318 74.4984 111.841 76.687 111.841ZM114.893 116.553C114.036 116.553 113.465 116.422 113.085 116.117C112.704 115.855 112.371 115.244 112.086 114.415L100.905 80.6938C100.619 79.8213 100.476 79.2542 100.476 78.9488C100.476 78.2508 100.857 77.8582 101.618 77.8582H106.281C107.185 77.8582 107.804 77.9891 108.137 78.2945C108.517 78.5562 108.803 79.167 109.088 79.9958L117.081 108.875L124.504 79.9958C124.742 79.1233 125.027 78.5562 125.408 78.2945C125.788 78.0327 126.454 77.8582 127.311 77.8582H131.117C132.021 77.8582 132.64 77.9891 133.02 78.2945C133.401 78.5562 133.734 79.167 133.924 79.9958L141.442 109.224L149.673 79.9958C149.958 79.1233 150.291 78.5562 150.624 78.2945C151.005 78.0327 151.624 77.8582 152.48 77.8582H156.905C157.666 77.8582 158.094 78.2072 158.094 78.9488C158.094 79.1669 158.047 79.3851 157.999 79.6468C157.952 79.9085 157.856 80.2575 157.666 80.7374L146.2 114.459C145.914 115.331 145.581 115.899 145.2 116.16C144.82 116.422 144.201 116.597 143.392 116.597H139.301C138.397 116.597 137.778 116.466 137.398 116.16C137.017 115.855 136.684 115.288 136.494 114.415L129.119 86.2777L121.792 114.372C121.554 115.244 121.268 115.811 120.888 116.117C120.507 116.422 119.841 116.553 118.985 116.553L114.893 116.553ZM176.032 117.731C173.557 117.731 171.083 117.469 168.704 116.945C166.325 116.422 164.47 115.855 163.233 115.201C162.472 114.808 161.948 114.372 161.758 113.979C161.568 113.586 161.472 113.15 161.472 112.758V110.533C161.472 109.617 161.853 109.18 162.567 109.18C162.852 109.18 163.138 109.224 163.423 109.311C163.709 109.399 164.137 109.573 164.613 109.748C166.23 110.402 167.991 110.925 169.846 111.274C171.749 111.623 173.605 111.798 175.508 111.798C178.506 111.798 180.837 111.318 182.455 110.358C184.072 109.399 184.929 108.003 184.929 106.214C184.929 104.992 184.501 103.989 183.644 103.16C182.788 102.331 181.17 101.59 178.839 100.892L171.94 98.9287C168.467 97.9254 165.897 96.4421 164.327 94.4791C162.757 92.5596 161.948 90.422 161.948 88.1535C161.948 86.3213 162.376 84.7073 163.233 83.3113C164.089 81.9153 165.231 80.6938 166.659 79.7341C168.086 78.7307 169.704 77.9891 171.607 77.4656C173.51 76.9421 175.508 76.724 177.602 76.724C178.648 76.724 179.743 76.7676 180.789 76.8985C181.884 77.0294 182.883 77.2039 183.882 77.3784C184.834 77.5965 185.738 77.8146 186.594 78.0764C187.45 78.3381 188.117 78.5998 188.592 78.8616C189.258 79.2106 189.734 79.5596 190.02 79.9522C190.305 80.3012 190.448 80.7811 190.448 81.3918V83.4422C190.448 84.3583 190.067 84.8381 189.354 84.8381C188.973 84.8381 188.354 84.6636 187.546 84.3146C184.834 83.1804 181.789 82.6133 178.411 82.6133C175.699 82.6133 173.557 83.0059 172.083 83.8348C170.608 84.6636 169.846 85.9287 169.846 87.7173C169.846 88.9388 170.322 89.9858 171.274 90.8147C172.225 91.6435 173.986 92.4724 176.507 93.214L183.264 95.1771C186.689 96.1804 189.163 97.5764 190.638 99.365C192.113 101.154 192.827 103.204 192.827 105.472C192.827 107.348 192.399 109.05 191.59 110.533C190.733 112.016 189.592 113.325 188.117 114.372C186.642 115.462 184.881 116.248 182.835 116.815C180.694 117.425 178.458 117.731 176.032 117.731Z" fill="#252F3E"/>
<path fill-rule="evenodd" clip-rule="evenodd" d="M185.024 138.932C169.37 149.533 146.628 155.16 127.073 155.16C99.6675 155.16 74.9741 145.868 56.3232 130.425C54.8483 129.204 56.1805 127.546 57.9409 128.506C78.1143 139.237 102.998 145.737 128.738 145.737C146.104 145.737 165.184 142.422 182.74 135.617C185.357 134.526 187.593 137.187 185.024 138.932Z" fill="#FF9900"/>
<path fill-rule="evenodd" clip-rule="evenodd" d="M191.542 132.127C189.544 129.771 178.315 130.993 173.224 131.56C171.702 131.734 171.464 130.513 172.844 129.597C181.789 123.838 196.49 125.496 198.203 127.415C199.916 129.378 197.727 142.858 189.354 149.315C188.069 150.318 186.832 149.795 187.403 148.486C189.306 144.167 193.541 134.439 191.542 132.127Z" fill="#FF9900"/>
<path d="M486.361 78.5755C485.226 77.5346 476.144 55.6765 476.144 55.6765L454.575 54.6357L444.706 75.9692L486.361 78.5755Z" fill="#FFB6B6"/>
<path d="M455.76 64.7056C471.795 64.7056 484.794 52.7873 484.794 38.0853C484.794 23.3833 471.795 11.465 455.76 11.465C439.725 11.465 426.727 23.3833 426.727 38.0853C426.727 52.7873 439.725 64.7056 455.76 64.7056Z" fill="#FFB6B6"/>
<path d="M510.768 222.735L520.985 253.96L493.74 435.07H475.295L465.359 298.717L454.007 345.556L511.903 413.212L497.145 428.825L413.707 354.403L415.41 239.388L422.221 221.694L510.768 222.735Z" fill="#2F2E41"/>
<path d="M480.101 59.9536L477.833 60.056C477.833 60.056 475.806 43.4737 474.616 42.4853C473.426 41.4969 471.27 43.6785 471.27 43.6785C471.27 43.6785 461.92 38.8903 461.641 33.6923C461.362 28.4943 461.138 24.3359 457.737 24.4895C454.335 24.6432 435.283 29.6722 430.748 29.8771C426.213 30.082 419.019 23.1121 426.62 16.516C434.222 9.91986 440.913 7.53338 441.991 6.44255C443.069 5.35172 450.167 0.862642 456.367 4.75106C462.568 8.63947 470.505 8.28095 470.505 8.28095C470.505 8.28095 485.412 10.7339 483.48 17.074C481.547 23.414 489.021 35.5819 485.954 41.9731C482.888 48.3644 480.101 59.9536 480.101 59.9536Z" fill="#2F2E41"/>
<path d="M474.441 431.948L494.875 434.029L497.145 468.378C497.145 468.378 496.01 485.031 476.712 482.95C457.413 480.868 463.089 464.214 463.089 464.214L474.441 431.948Z" fill="#2F2E41"/>
<path d="M501.119 407.487C501.119 407.487 515.876 401.242 518.147 408.528L522.688 423.1C522.688 423.1 522.688 437.672 523.823 438.713C524.958 439.754 546.527 466.816 527.229 481.388C527.229 481.388 517.012 482.429 511.336 467.857C505.659 453.285 488.631 438.713 488.631 438.713C488.631 438.713 485.333 431.427 490.955 431.948C496.578 432.468 504.524 419.978 502.254 415.814C499.983 411.651 501.119 407.487 501.119 407.487Z" fill="#2F2E41"/>
<path d="M313.693 271.503C308.411 269.464 306.963 261.642 310.46 254.03C311.811 250.972 313.942 248.255 316.673 246.106L320.753 237.527L320.607 237.436L332.338 194.571C335.065 184.604 342.575 176.196 352.888 172.174C359.023 169.782 364.845 169.349 366.538 175.081C369.347 184.592 351.051 215.229 340.019 232.467L331.425 251.803C331.657 255.097 331.026 258.394 329.583 261.418C326.089 269.028 318.974 273.543 313.693 271.503Z" fill="#FFB6B6"/>
<path d="M445.493 72.3303L482.955 73.3712L519.282 87.9432L513.606 174.335C513.606 174.335 520.417 194.111 517.012 197.234C513.606 200.356 517.012 214.354 514.741 214.641C512.471 214.928 514.741 229.984 514.741 229.984C514.741 229.984 482.955 220.132 455.71 226.378C428.465 232.623 419.383 222.214 419.383 222.214C419.383 222.214 412.572 197.234 412.572 192.029V85.6075L445.493 72.3303Z" fill="#82B29A"/>
<path d="M418.816 85.3411C418.816 85.3411 402.922 81.1776 394.976 91.5862C387.029 101.995 382.489 101.995 382.489 115.526C382.489 115.526 335.945 175.896 338.215 182.141L327.431 198.274L354.676 211.806C354.676 211.806 364.325 202.958 364.325 194.631C364.325 186.305 391.57 163.406 391.57 163.406C391.57 163.406 415.41 135.302 416.545 124.894C417.68 114.485 418.816 85.3411 418.816 85.3411Z" fill="#82B29A"/>
<path d="M558.787 276.811H715.071C741.548 276.811 763.011 296.49 763.011 320.766V435.711C763.011 459.987 741.548 479.667 715.071 479.667H558.787C532.311 479.667 510.847 459.987 510.847 435.711V320.766C510.847 296.49 532.311 276.811 558.787 276.811Z" fill="white"/>
<path d="M508.577 434.671V319.726C508.577 294.915 530.592 274.73 557.652 274.73H713.936C740.996 274.73 763.011 294.915 763.011 319.726V434.671C763.011 459.482 740.996 479.667 713.936 479.667H557.652C530.592 479.667 508.577 459.482 508.577 434.671ZM557.652 276.811C531.843 276.811 510.847 296.063 510.847 319.726V434.671C510.847 458.334 531.843 477.585 557.652 477.585H713.936C739.744 477.585 760.741 458.334 760.741 434.671V319.726C760.741 296.063 739.744 276.811 713.936 276.811H557.652Z" fill="#3F3D56"/>
<path d="M656.822 357.177H660.679L671.67 347.1L672.21 342.821C651.754 326.267 620.535 328.051 602.48 346.807C597.465 352.017 593.824 358.215 591.84 364.921C593.065 364.461 594.421 364.386 595.697 364.709L617.679 361.385C617.679 361.385 618.797 359.688 619.376 359.794C629.154 349.947 645.61 348.8 656.9 357.177L656.822 357.177Z" fill="#EA4335"/>
<path d="M687.328 364.921C684.801 356.391 679.614 348.723 672.403 342.857L656.977 357C663.491 361.881 667.201 369.232 667.042 376.943V379.454C674.625 379.454 680.772 385.09 680.772 392.042C680.772 398.994 674.625 404.63 667.042 404.63H639.584L636.846 407.176V422.275L639.584 424.785H667.042C686.765 424.926 702.877 410.381 703.031 392.298C703.124 381.338 697.229 371.062 687.328 364.921Z" fill="#4285F4"/>
<path d="M612.087 424.644H639.545V404.489H612.087C610.131 404.488 608.197 404.102 606.418 403.357L602.561 404.453L591.493 414.531L590.529 418.067C596.736 422.364 604.309 424.675 612.087 424.644Z" fill="#34A853"/>
<path d="M612.087 359.264C592.364 359.372 576.472 374.118 576.589 392.202C576.655 402.3 581.799 411.805 590.529 417.961L606.456 403.357C599.546 400.495 596.476 393.038 599.598 386.703C602.719 380.367 610.852 377.552 617.762 380.414C620.806 381.675 623.245 383.911 624.621 386.703L640.548 372.099C633.771 363.976 623.241 359.227 612.087 359.264Z" fill="#FBBC05"/>
<path d="M542.081 295.057C547.804 294.781 552.06 287.875 551.589 279.626C551.45 276.329 550.452 273.11 548.678 270.239L548.016 260.899L548.187 260.86L553.019 216.888C554.143 206.664 550.191 196.418 541.979 189.426C537.093 185.266 531.777 183.048 528.063 187.913C521.901 195.986 527.77 230.497 531.766 250.145L532.693 271.008C531.255 274.034 530.629 277.332 530.866 280.625C531.336 288.871 536.358 295.332 542.081 295.057Z" fill="#FFB6B6"/>
<path d="M512.106 87.2313C512.106 87.2313 528.597 88.2606 532.219 100.524C535.841 112.788 540.113 114.201 535.104 126.929C535.104 126.929 556.539 198.199 552.092 203.367L556.264 221.899L525.627 226.149C525.627 226.149 519.826 214.824 522.908 206.991C525.99 199.159 508.838 169.141 508.838 169.141C508.838 169.141 496.816 135.287 499.601 125.143C502.386 114.999 512.106 87.2313 512.106 87.2313Z" fill="#82B29A"/>
</g>
<defs>
<linearGradient id="paint0_linear_8_52" x1="261.03" y1="315.977" x2="229.96" y2="416.087" gradientUnits="userSpaceOnUse">
<stop stop-color="#114A8B"/>
<stop offset="1" stop-color="#0669BC"/>
</linearGradient>
<linearGradient id="paint1_linear_8_52" x1="272.386" y1="361.865" x2="264.138" y2="364.907" gradientUnits="userSpaceOnUse">
<stop stop-opacity="0.3"/>
<stop offset="0.071" stop-opacity="0.2"/>
<stop offset="0.321" stop-opacity="0.1"/>
<stop offset="0.623" stop-opacity="0.05"/>
<stop offset="1" stop-opacity="0"/>
</linearGradient>
<linearGradient id="paint2_linear_8_52" x1="268.023" y1="313.015" x2="302.244" y2="412.45" gradientUnits="userSpaceOnUse">
<stop stop-color="#3CCBF4"/>
<stop offset="1" stop-color="#2892DF"/>
</linearGradient>
<clipPath id="clip0_8_52">
<rect width="764" height="484" fill="white"/>
</clipPath>
</defs>
</svg>
